<svg xmlns="http://www.w3.org/2000/svg" width="512" height="512" viewBox="0 0 512 512" role="img" aria-labelledby="title description">
<title id="title">LCSC3D monochrome icon</title>
<desc id="description">A single-color LCSC3D silhouette using currentColor. Transparent background.</desc>
<g id="lcsc3d-symbol">
  <path id="depth" fill="currentColor" d="M150 56 C144 56 140 58 136 61 L96 94 Q88 101 88 112 V436 Q88 456 108 456 H364 Q376 456 384 449 L418 421 Q424 416 424 404 H136 V74 Q136 56 150 56 Z"/>
  <path id="front" fill="currentColor" d="M154 56 H226 A18 18 0 0 1 244 74 V290 A18 18 0 0 0 262 308 H406 A18 18 0 0 1 424 326 V398 A18 18 0 0 1 406 416 H136 V74 A18 18 0 0 1 154 56 Z"/>
</g>
</svg>
